<?xml version="1.0" encoding="utf-8"?>
<!-- Generator: Adobe Illustrator 16.0.0, SVG Export Plug-In . SVG Version: 6.00 Build 0)  -->
<!DOCTYPE svg PUBLIC "-//W3C//DTD SVG 1.1//EN" "http://www.w3.org/Graphics/SVG/1.1/DTD/svg11.dtd">
<svg version="1.1"
	 id="svg2" xmlns:dc="http://purl.org/dc/elements/1.1/" xmlns:cc="http://creativecommons.org/ns#" xmlns:rdf="http://www.w3.org/1999/02/22-rdf-syntax-ns#" xmlns:svg="http://www.w3.org/2000/svg" xmlns:sodipodi="http://sodipodi.sourceforge.net/DTD/sodipodi-0.dtd" xmlns:inkscape="http://www.inkscape.org/namespaces/inkscape" sodipodi:docname="AA.svg" inkscape:version="0.48.5 r10040"
	 xmlns="http://www.w3.org/2000/svg" xmlns:xlink="http://www.w3.org/1999/xlink" x="0px" y="0px" width="331.613px"
	 height="60.744px" viewBox="0.497 121.744 331.613 60.744" enable-background="new 0.497 121.744 331.613 60.744"
	 xml:space="preserve">
<sodipodi:namedview  fit-margin-top="0.5" fit-margin-left="0.5" showgrid="false" inkscape:cy="-188.19827" inkscape:cx="487.60781" inkscape:zoom="0.5796875" borderopacity="1.0" bordercolor="#666666" pagecolor="#ffffff" id="base" inkscape:window-y="-21" inkscape:window-x="734" inkscape:window-height="1045" inkscape:window-width="1189" inkscape:current-layer="layer1" fit-margin-right="0.5" inkscape:document-units="px" inkscape:pageopacity="0.0" fit-margin-bottom="0.5" inkscape:pageshadow="2" inkscape:window-maximized="0">
	
		<inkscape:grid  type="xygrid" originy="-994.05382px" originx="-428.44451px" enabled="true" visible="true" empspacing="5" id="grid2996" snapvisiblegridlinesonly="true">
		</inkscape:grid>
</sodipodi:namedview>
<g id="layer1" transform="translate(-428.44451,124.17924)" inkscape:label="Layer 1" inkscape:groupmode="layer">
	<g id="g6927" transform="matrix(8.3053095,0,0,-8.3053095,-3280.5763,352.09041)">
		<g>
			<defs>
				<rect id="SVGID_1_" x="300.801" y="8.938" width="331.615" height="60.244"/>
			</defs>
			<clipPath id="SVGID_2_">
				<use xlink:href="#SVGID_1_"  overflow="visible"/>
			</clipPath>
			<g id="g6929" clip-path="url(#SVGID_2_)">
				<g id="g6935" transform="translate(493.0905,52.881)">
					<path id="path6937" inkscape:connector-curvature="0" fill="#231F20" d="M-31.029-11.656h1.529l0.246,1.237h-1.529
						L-31.029-11.656z M-31.187-12.452h1.529l-0.971-4.884c-0.071-0.025-0.29-0.111-0.592-0.111c-0.408,0-0.782,0.159-0.782,0.722
						c0,0.106,0.012,0.227,0.039,0.363C-31.66-14.838-31.187-12.452-31.187-12.452 M-16.006-12.34c-1.017,0-1.422-0.595-1.612-0.957
						h-0.018l0.059,0.845h-1.511c-0.01-0.186-0.075-0.771-0.172-1.277c0,0-0.349-1.773-0.415-2.112
						c-0.05-0.259-0.142-0.643-0.142-0.865c0-0.474,0.241-0.741,0.778-0.741c0.301,0,0.518,0.082,0.597,0.111l0.505,2.543
						c0.14,0.702,0.649,1.162,1.254,1.162c0.488,0,0.721-0.355,0.721-0.646c0-0.253-0.063-0.533-0.113-0.781l-0.217-1.089
						c-0.026-0.131-0.081-0.382-0.081-0.579c0-0.481,0.272-0.722,0.788-0.722c0.282,0,0.46,0.07,0.587,0.111l0.453,2.28
						c0.098,0.515,0.134,0.787,0.134,1.115C-14.411-12.997-14.963-12.34-16.006-12.34 M-22.797-13.521
						c-0.855,0-1.328-0.872-1.328-1.65c0-0.656,0.297-1.096,0.971-1.096c0.763,0,1.359,0.648,1.359,1.754
						C-21.795-14.007-22.065-13.521-22.797-13.521 M-23.248-17.447c-1.637,0-2.42,0.981-2.42,2.23c0,1.715,1.179,2.877,3.001,2.877
						c1.581,0,2.42-0.956,2.42-2.183C-20.247-16.363-21.506-17.447-23.248-17.447 M-28.973-16.271
						c-0.035-0.176-0.057-0.299-0.057-0.45c0-0.56,0.375-0.726,0.772-0.726c0.317,0,0.514,0.087,0.586,0.111l0.735,3.702l1.189,0
						l0.235,1.181h-1.189l0.058,0.291c0.108,0.546,0.365,0.786,0.81,0.786c0.297,0,0.537-0.053,0.621-0.075l0.224,1.124
						c-0.095,0.024-0.535,0.131-1.185,0.131c-1.036,0-1.715-0.628-1.916-1.641l-0.122-0.617h-0.774l-0.235-1.181h0.774
						C-28.448-13.633-28.753-15.164-28.973-16.271 M-32.492-12.34c-0.767,0-1.189-0.532-1.355-0.957h-0.018l0.059,0.845h-1.512
						c-0.013-0.293-0.075-0.788-0.229-1.567c-0.156-0.789-0.308-1.576-0.465-2.342c-0.027-0.131-0.039-0.259-0.039-0.368
						c0-0.401,0.199-0.717,0.785-0.717c0.291,0,0.493,0.075,0.59,0.111l0.45,2.264c0.162,0.866,0.456,1.439,1.31,1.439
						c0.388,0,0.758-0.083,0.834-0.105l0.259,1.302C-31.878-12.416-32.102-12.34-32.492-12.34 M-10.316-14.431
						c0.082,0.448-0.179,0.91-0.768,0.91c-0.72,0-1.036-0.491-1.177-0.91H-10.316z M-9.634-16.248c0-0.68-0.659-1.2-1.824-1.2
						c-1.612,0-2.4,1.003-2.4,2.23c0,1.219,0.81,2.877,2.787,2.877c1.303,0,2.278-0.647,2.278-2.127
						c0-0.364-0.081-0.759-0.116-0.918h-3.464c-0.006-0.355,0.294-0.971,1.498-0.971c0.537,0,1.145,0.19,1.242,0.238V-16.248
						L-9.634-16.248z M-37.942-14.431c0.082,0.448-0.179,0.91-0.768,0.91c-0.72,0-1.036-0.491-1.177-0.91H-37.942z M-37.259-16.248
						c0-0.68-0.659-1.2-1.824-1.2c-1.612,0-2.4,1.003-2.4,2.23c0,1.219,0.81,2.877,2.786,2.877c1.304,0,2.278-0.647,2.278-2.127
						c0-0.364-0.081-0.759-0.116-0.918H-40c-0.006-0.355,0.294-0.971,1.498-0.971c0.537,0,1.145,0.19,1.242,0.238V-16.248
						L-37.259-16.248z M-46.446-10.79h1.538v-4.856c0-0.73,0.364-1.103,0.948-1.103c0.06,0,0.095,0.008,0.106,0.01
						c-0.256-0.387-0.588-0.704-1.35-0.704c-0.807,0-1.242,0.559-1.242,1.398V-10.79L-46.446-10.79z"/>
				</g>
				<g id="g6939" transform="translate(452.5683,42.3734)">
					<path id="path6941" inkscape:connector-curvature="0" fill="#00ADEF" d="M-3.958-4.637v-0.51c0-0.492,0.266-0.668,0.557-0.668
						c0.297,0,0.456,0.201,0.602,0.43c0.245,0.383,3.232,5.103,3.232,5.103h-1.599L-3.958-4.637z"/>
				</g>
				<g id="g6943" transform="translate(564.2364,48.7356)">
					<path id="path6945" inkscape:connector-curvature="0" fill="#231F20" d="M-78.558-8.887h0.169c0.157,0,0.235,0.076,0.235,0.168
						c0,0.056-0.028,0.137-0.174,0.137h-0.169L-78.558-8.887z M-78.563-8.509h0.25c0.15,0,0.241-0.081,0.241-0.198
						c0-0.196-0.183-0.237-0.269-0.247l0.168-0.412h-0.091l-0.16,0.407h-0.149l-0.081-0.407h-0.08L-78.563-8.509z M-78.496-9.619
						c0.412,0,0.698,0.297,0.738,0.666c0.04,0.368-0.224,0.666-0.593,0.666c-0.409,0-0.698-0.297-0.738-0.666
						C-79.129-9.322-78.864-9.619-78.496-9.619 M-78.341-8.199c0.416,0,0.718-0.339,0.672-0.755
						c-0.046-0.416-0.382-0.754-0.837-0.754c-0.416,0-0.717,0.339-0.672,0.754C-79.132-8.538-78.785-8.199-78.341-8.199"/>
				</g>
			</g>
		</g>
	</g>
</g>
</svg>
