<svg xmlns="http://www.w3.org/2000/svg" viewBox="0 0 310.32 56.38"><defs><style>.a{fill:#fff}</style></defs><title>verifone-footer-logo</title><path class="a" d="M274.93 16.69c-15.36 0-21.66 12.89-21.66 22.36s6.13 17.33 18.65 17.33c9.06 0 14.18-4 14.18-9.33v-1a30.13 30.13 0 0 1-9.66 1.85c-9.36 0-11.69-4.79-11.64-7.55h26.93a35.87 35.87 0 0 0 .9-7.14c0-11.5-7.57-16.52-17.7-16.52zm5.87 16.24h-15.12c1.1-3.26 3.55-7.07 9.15-7.07a5.74 5.74 0 0 1 5.97 7.07zM108.45 16.68a11.17 11.17 0 0 0-10.53 7.44h-.14l.46-6.57H86.49a88.89 88.89 0 0 1-1.78 12.18c-1.21 6.13-2.39 12.25-3.61 18.21a14.56 14.56 0 0 0-.3 2.86c0 3.12 1.54 5.58 6.1 5.58a12.51 12.51 0 0 0 4.58-.87l3.49-17.6c1.26-6.73 3.55-11.18 10.18-11.18a27.77 27.77 0 0 1 6.49.82l2-10.12a15.75 15.75 0 0 0-5.19-.75zm11.38-5.32h11.88l1.91-9.61h-11.89l-1.9 9.61zM11.95 42.37V4.63h-12v40.84c0 6.52 3.39 10.87 9.65 10.87 5.92 0 8.5-2.47 10.49-5.48a3.55 3.55 0 0 1-.83.08c-4.48 0-7.31-2.94-7.31-8.57zm48.27-25.68c-15.36 0-21.66 12.89-21.66 22.36s6.12 17.33 18.65 17.33c9.06 0 14.18-4 14.18-9.33v-1a30.14 30.14 0 0 1-9.66 1.85c-9.36 0-11.69-4.79-11.64-7.55h26.92a35.82 35.82 0 0 0 .9-7.14c.02-11.5-7.56-16.52-17.69-16.52zm5.87 16.24H50.98c1.1-3.26 3.55-7.07 9.15-7.07a5.74 5.74 0 0 1 5.97 7.07zm46.47 15a14.54 14.54 0 0 0-.31 2.82c0 4.38 2.91 5.61 6.08 5.61a13.06 13.06 0 0 0 4.6-.87l7.55-38h-11.85l-6.07 30.44zm124.07-31.25c-7.91 0-11.05 4.63-12.53 7.44h-.14l.46-6.57h-11.79a95.28 95.28 0 0 1-1.34 9.92l-3.23 16.42a45.63 45.63 0 0 0-1.11 6.72c0 3.68 1.87 5.76 6 5.76a12.88 12.88 0 0 0 4.64-.87l3.93-19.77c1.09-5.46 5-9 9.74-9 3.79 0 5.61 2.76 5.61 5a32.76 32.76 0 0 1-.88 6.07l-1.69 8.46a25.3 25.3 0 0 0-.63 4.5c0 3.74 2.11 5.61 6.13 5.61a13 13 0 0 0 4.56-.87l3.52-17.72a42.85 42.85 0 0 0 1-8.66c.1-7.34-4.2-12.44-12.25-12.44zm-83.18.86l.45-2.26c.84-4.24 2.83-6.11 6.29-6.11a20.23 20.23 0 0 1 4.83.58L166.76 1a38.3 38.3 0 0 0-9.21-1c-8.05 0-13.33 4.88-14.89 12.75l-1 4.79h-6l-1.82 9.18h6s-2.37 11.9-4.08 20.5a16.9 16.9 0 0 0-.44 3.5c0 4.35 2.91 5.64 6 5.64a12 12 0 0 0 4.55-.87l5.76-28.76h9.24l1.82-9.18zm31.36-.86c-14.16 0-23.32 9-23.32 22.36 0 9.71 6.09 17.33 18.81 17.33 13.54 0 23.32-8.43 23.32-22.72.01-9.54-6.52-16.97-18.81-16.97zm-3.78 30.52c-5.24 0-7.55-3.41-7.55-8.51 0-6 3.68-12.83 10.32-12.83 5.69 0 7.79 3.78 7.79 7.71.04 8.59-4.64 13.62-10.56 13.62z"/><path class="a" d="M36.98 4.63l-21.7 33.84v4c0 3.83 2.07 5.2 4.33 5.2s3.54-1.56 4.68-3.34L49.41 4.67zm268.08 12.08a6.55 6.55 0 0 0-6.5 5.86 5.16 5.16 0 0 0 5.22 5.86 6.49 6.49 0 0 0 6.5-5.86 5.16 5.16 0 0 0-5.22-5.86zm4.57 5.86a5.65 5.65 0 0 1-5.74 5.17 4.54 4.54 0 0 1-4.61-5.17 5.67 5.67 0 0 1 5.74-5.17 4.54 4.54 0 0 1 4.61 5.17z"/><path class="a" d="M305.28 19.12h-1.94l-1.33 6.66h.62l.63-3.16h1.16l1.21 3.16h.71l-1.3-3.2c.67-.07 2.09-.39 2.09-1.92.02-.91-.69-1.54-1.85-1.54zm-.59 2.94h-1.32l.47-2.37h1.32c1.13 0 1.35.63 1.35 1.07 0 .71-.6 1.3-1.82 1.3z"/></svg>